<svg xmlns="http://www.w3.org/2000/svg" viewBox="0 0 512 511"><path xmlns="http://www.w3.org/2000/svg" d="M405.813 10.5L207.688 208.625l-101.5-101.5L10 203.313 207.688 401 502 106.687zm0 0" fill="#218c74" data-original="#cbe558"/><path xmlns="http://www.w3.org/2000/svg" d="M207.688 411a10 10 0 01-7.07-2.93L2.93 210.383a10 10 0 010-14.145l96.187-96.183c3.906-3.907 10.238-3.907 14.14 0l94.43 94.43L398.743 3.43a10 10 0 0114.14 0l96.188 96.187c3.907 3.906 3.907 10.238 0 14.145L380.934 241.898c-3.907 3.903-10.239 3.903-14.145 0-3.906-3.906-3.906-10.238 0-14.144l121.066-121.066-82.043-82.047-191.054 191.054a10 10 0 01-14.14 0l-94.43-94.43-82.043 82.047 183.542 183.543 102.536-102.53c3.902-3.907 10.234-3.907 14.14 0s3.907 10.237 0 14.144L214.758 408.07a10 10 0 01-7.07 2.93zm0 0" fill="#fff" data-original="#000000"/><path xmlns="http://www.w3.org/2000/svg" d="M345.66 273.188c-2.64 0-5.21-1.067-7.07-2.93a10.023 10.023 0 01-2.93-7.07 10.02 10.02 0 012.93-7.067 10.063 10.063 0 017.07-2.933c2.63 0 5.211 1.07 7.07 2.933a10.07 10.07 0 012.93 7.067c0 2.632-1.07 5.21-2.93 7.07a10.063 10.063 0 01-7.07 2.93zm0 0" fill="#fff" data-original="#000000"/></svg>