<svg xmlns="http://www.w3.org/2000/svg" viewBox="0 0 512 511"><path xmlns="http://www.w3.org/2000/svg" d="M502 106.656l-96.16-96.16L256 160.34 106.156 10.496 10 106.656 159.84 256.5 10 406.34l96.156 96.16L256 352.656 405.84 502.5 502 406.34 352.156 256.5zm0 0" fill="#ff793f" data-original="#ff6977"/><path xmlns="http://www.w3.org/2000/svg" d="M405.84 512.496a9.98 9.98 0 01-7.07-2.926l-56.614-56.617c-3.906-3.902-3.906-10.234 0-14.14s10.235-3.907 14.14 0l49.548 49.542 82.015-82.015-142.773-142.77c-3.902-3.906-3.902-10.238 0-14.144l142.773-142.77-82.02-82.015L263.07 167.41c-3.906 3.901-10.234 3.901-14.14 0L106.156 24.64l-82.015 82.015 142.77 142.77c3.905 3.906 3.905 10.238 0 14.144L24.14 406.34l82.015 82.015 142.774-142.77a10 10 0 0114.14 0l36.54 36.54c3.906 3.906 3.906 10.238 0 14.145-3.907 3.902-10.235 3.902-14.141 0l-29.473-29.473-142.77 142.773c-3.902 3.903-10.234 3.903-14.14 0L2.93 413.41c-3.907-3.902-3.907-10.234 0-14.14L145.7 256.496 2.93 113.726a9.996 9.996 0 010-14.14l96.156-96.16c3.906-3.903 10.234-3.903 14.14 0L256 146.199 398.77 3.426c3.91-3.903 10.238-3.903 14.144 0l96.156 96.16a9.996 9.996 0 010 14.14L366.297 256.5 509.07 399.27c3.907 3.906 3.907 10.238 0 14.14l-96.16 96.16a9.967 9.967 0 01-7.07 2.926zm0 0" fill="#fff" data-original="#000000"/><path xmlns="http://www.w3.org/2000/svg" d="M320.953 427.582c-2.64 0-5.207-1.066-7.066-2.93a10.02 10.02 0 01-2.93-7.066c0-2.633 1.059-5.211 2.93-7.07a10.07 10.07 0 017.066-2.93c2.621 0 5.2 1.07 7.07 2.93a10.073 10.073 0 012.93 7.07 10.07 10.07 0 01-2.93 7.066 10.077 10.077 0 01-7.07 2.93zm0 0" fill="#fff" data-original="#000000"/></svg>